<svg version="1.1" id="Layer_1" xmlns="http://www.w3.org/2000/svg" xmlns:xlink="http://www.w3.org/1999/xlink" x="0px" y="0px"
	 width="100%" viewBox="0 0 738 704" enable-background="new 0 0 738 704" xml:space="preserve">
<path fill="#000000" opacity="1.000000" stroke="none" 
	d="
M429.000000,705.000000 
	C286.000000,705.000000 143.500000,705.000000 1.000000,705.000000 
	C1.000000,470.333344 1.000000,235.666672 1.000000,1.000000 
	C247.000000,1.000000 493.000000,1.000000 739.000000,1.000000 
	C739.000000,235.666672 739.000000,470.333344 739.000000,705.000000 
	C635.833313,705.000000 532.666687,705.000000 429.000000,705.000000 
M126.047775,297.867188 
	C127.273300,300.337982 128.609222,302.763733 129.647781,305.310760 
	C129.911911,305.958527 129.231186,306.991608 128.133362,307.980194 
	C123.421371,308.708557 118.709381,309.436920 113.355286,309.877106 
	C112.586235,309.020203 111.704468,308.239471 111.066071,307.294312 
	C106.231834,300.137238 103.348610,300.162567 99.611893,307.988464 
	C97.144508,313.155945 95.257668,318.634521 93.491829,324.096985 
	C87.294601,343.267426 86.706474,362.888245 89.016029,383.641327 
	C89.675301,388.150452 90.862617,392.656372 90.890282,397.169373 
	C90.960403,408.610687 96.553101,418.319763 101.079025,428.051483 
	C104.888756,436.243256 110.895180,443.757690 117.190346,450.371582 
	C127.604927,461.313446 138.963058,471.339569 153.354935,477.156403 
	C160.073853,479.872040 166.391846,483.701202 173.248627,485.924347 
	C182.479736,488.917328 192.097702,490.693878 201.473129,493.270813 
	C213.406540,496.550964 225.533157,498.036285 237.880066,498.004639 
	C247.031403,497.981201 256.189392,498.203217 265.331268,497.907990 
	C269.448547,497.774963 272.037262,499.324921 273.398163,502.919220 
	C275.345215,508.061615 276.713837,513.441528 278.910126,518.466125 
	C281.269989,523.864990 284.301331,528.970459 287.040924,534.906982 
	C291.043884,541.914307 294.585785,549.238831 299.144135,555.864075 
	C309.158081,570.418518 320.899658,583.527100 334.542664,594.821106 
	C338.115814,597.779053 342.061523,600.286987 346.126404,603.632202 
	C346.099701,607.350220 345.941467,611.073120 346.078308,614.785156 
	C346.266083,619.879883 347.090515,624.982971 346.887329,630.052246 
	C346.640076,636.220886 347.509613,637.909668 353.706665,637.948059 
	C374.527893,638.077148 395.350433,638.017395 416.172394,637.975281 
	C419.954315,637.967590 421.937805,635.865967 421.980133,632.100281 
	C422.040009,626.770508 422.035248,621.439331 421.991180,616.109253 
	C421.925415,608.157410 421.896454,600.480530 426.721313,593.255798 
	C430.633270,587.398010 435.468842,584.475525 442.845886,583.983643 
	C447.611053,586.249390 450.667816,589.961304 452.028015,595.854187 
	C451.175018,599.259277 450.538269,602.738220 449.406647,606.048096 
	C448.327606,609.204163 445.890533,612.091431 445.542877,615.260620 
	C444.855713,621.524841 444.899750,627.923706 445.353485,634.215515 
	C445.451355,635.572510 448.431488,637.460938 450.313049,637.788513 
	C453.719727,638.381531 457.298859,637.994995 460.805969,637.997803 
	C469.326569,638.004517 477.849335,638.121765 486.367279,637.971313 
	C498.953888,637.749023 511.536530,637.101624 524.121887,637.072571 
	C534.375183,637.048950 544.643738,638.163391 554.880859,637.880737 
	C569.402893,637.479736 583.822937,637.085266 598.040344,632.324097 
	C614.074707,626.954407 628.325684,619.129883 640.524780,607.690430 
	C645.331421,603.183167 649.383850,597.725281 653.102234,592.240967 
	C657.750610,585.385071 662.770142,578.462830 665.676880,570.826050 
	C669.166138,561.658630 670.729431,551.736877 672.835205,542.078125 
	C673.412354,539.431274 672.945740,536.556763 672.986389,532.876526 
	C672.986389,523.673340 672.986389,514.470093 672.986389,505.266907 
	C672.578186,505.154541 672.169983,505.042175 671.761780,504.929779 
	C670.177368,507.267670 668.468994,509.531860 667.029053,511.955536 
	C658.278870,526.684265 647.038879,539.033203 631.748596,547.016113 
	C607.348877,559.754822 582.355042,558.513489 557.233398,549.092163 
	C536.381226,541.271973 518.888000,528.244629 503.535309,512.585266 
	C492.940125,501.778442 483.832001,489.513702 473.770416,477.274384 
	C466.991669,469.443542 460.160339,461.656494 453.534302,453.698486 
	C453.007172,453.065369 453.473022,450.860413 454.208801,450.050079 
	C457.391937,446.544617 460.828247,443.267029 464.208282,439.942993 
	C467.957794,436.255524 472.422577,433.076691 475.363556,428.835663 
	C480.105957,421.996918 483.846893,414.464722 488.025970,407.234161 
	C496.295319,392.926575 501.931580,377.599274 504.717834,361.362000 
	C506.376495,351.696014 507.480286,341.861206 507.820953,332.067078 
	C508.069916,324.909302 506.631714,317.697327 506.010406,310.503937 
	C504.633392,294.560913 499.472809,279.387054 492.251801,265.631042 
	C483.773315,249.479462 473.035187,234.427277 458.854553,222.136444 
	C445.982941,210.980240 432.662415,200.800629 416.778015,194.343597 
	C416.325836,194.159760 415.888275,193.937851 415.430786,193.769379 
	C410.186066,191.838242 405.052948,189.463394 399.664215,188.098480 
	C392.429443,186.266006 385.049408,184.620529 377.636963,183.963104 
	C365.321808,182.870804 352.925293,182.110229 340.575012,182.251770 
	C334.596008,182.320282 328.644104,184.753616 321.950623,186.269730 
	C317.694305,187.185532 313.399475,187.952591 309.188080,189.042053 
	C287.403046,194.677765 268.200745,205.291733 251.473099,220.172882 
	C240.195801,230.205307 230.993149,242.068848 223.262726,255.095337 
	C221.832382,257.505615 219.156570,260.350922 216.693497,260.747742 
	C210.071152,261.814636 203.250320,261.940704 196.513565,261.877502 
	C193.360046,261.847931 191.985931,263.230652 191.073883,265.689789 
	C189.789703,269.152252 188.641998,272.665314 186.818787,275.962341 
	C180.185196,271.891541 173.551620,267.820740 166.495285,263.223541 
	C164.986832,261.873718 163.295502,260.678711 162.000183,259.148468 
	C154.638458,250.451645 147.371353,241.674759 139.979965,232.209641 
	C139.317551,231.112640 138.622162,230.034058 137.998016,228.915710 
	C133.551575,220.948563 125.431549,220.383179 121.158615,228.403015 
	C118.457703,233.472321 116.638657,239.472977 116.188721,245.194672 
	C114.764091,263.311157 117.814186,280.779755 126.047775,297.867188 
M279.951782,128.744186 
	C275.579834,138.828445 271.207916,148.912720 266.194641,159.360840 
	C263.899261,166.357880 261.603882,173.354919 258.910583,181.564911 
	C287.841461,164.805191 317.300171,155.642334 349.753632,154.232193 
	C356.928864,154.821335 364.136139,155.157730 371.271332,156.062714 
	C380.467133,157.229080 389.814026,158.077530 398.712891,160.480804 
	C408.817169,163.209595 418.601013,167.253922 428.318817,171.228424 
	C432.948578,173.121933 437.035675,176.304352 441.490662,178.673340 
	C446.297180,181.229248 451.246368,183.516800 456.744019,186.225388 
	C460.814606,189.624542 464.654724,193.359909 469.009277,196.344788 
	C475.695862,200.928131 479.218170,208.927444 486.825378,212.427002 
	C487.236938,212.616318 487.509918,213.131012 487.817780,213.517822 
	C491.478546,218.117050 495.384430,222.546478 498.732178,227.363632 
	C503.911316,234.816116 509.272614,242.235107 513.507446,250.224426 
	C517.683594,258.102936 520.804443,266.580383 523.918884,274.969330 
	C526.323059,281.445099 528.331604,288.112671 529.913025,294.836792 
	C531.619568,302.092865 533.343140,309.473663 533.757812,316.873016 
	C534.303955,326.616516 534.089233,336.475006 533.250366,346.202026 
	C532.518066,354.693146 530.648071,363.107300 528.944214,371.487030 
	C527.530945,378.437592 525.936584,385.384613 523.832092,392.149567 
	C522.435730,396.638306 520.035278,400.820557 518.017700,405.108643 
	C515.755005,409.917542 513.789673,414.920258 511.019409,419.423035 
	C507.430084,425.257172 503.191193,430.693481 499.197052,436.276123 
	C496.511780,440.029327 494.041870,443.989716 490.957092,447.386536 
	C488.645752,449.931702 488.280518,452.242249 490.009583,454.877197 
	C492.101990,458.065826 494.272552,461.243561 496.757568,464.125702 
	C501.720703,469.881866 506.861542,475.488831 512.037415,481.056610 
	C520.528748,490.190948 528.994873,499.368134 540.109009,506.644470 
	C543.818604,509.275543 547.366882,512.179260 551.267334,514.487854 
	C564.268921,522.183350 578.277222,527.371460 593.328247,528.790710 
	C603.482178,529.748169 613.717224,527.172546 616.384399,514.975342 
	C617.246826,511.031860 617.465149,506.648468 616.722595,502.702576 
	C612.521729,480.380066 603.213135,460.099457 591.968018,440.934814 
	C593.713623,440.624481 595.451233,440.256256 597.206177,440.012970 
	C611.859558,437.981506 626.500000,435.903229 640.211670,429.879333 
	C651.592834,424.879272 655.403870,419.474854 654.800720,408.185364 
	C654.497314,402.506439 652.843445,396.654633 650.618347,391.379547 
	C647.099792,383.037842 642.688477,375.061951 638.450867,367.039124 
	C636.500244,363.346161 634.163940,359.842743 631.827271,356.371338 
	C628.644958,351.643585 625.295044,347.028625 622.569092,341.943207 
	C627.700134,336.142639 633.408386,330.747009 637.828430,324.447540 
	C644.636353,314.744659 651.186401,304.745361 656.618652,294.237366 
	C659.725098,288.228394 660.071899,280.521240 655.666870,274.730469 
	C651.703918,269.520752 646.720093,264.509735 641.120422,261.233154 
	C625.362610,252.012787 608.008850,246.752426 589.686035,243.557709 
	C592.500244,238.353592 595.406067,233.635773 597.691101,228.634323 
	C605.236877,212.118576 611.554016,195.322250 612.153992,176.739288 
	C612.504883,165.871155 604.694946,155.925827 595.013245,153.728180 
	C585.504883,151.569885 575.754150,149.370209 566.089050,149.273956 
	C551.937378,149.133057 537.767273,150.850967 523.339294,151.794083 
	C518.614990,128.552246 510.803162,105.928162 496.840210,85.963829 
	C492.212524,79.347153 486.557892,72.915504 476.133301,73.062813 
	C471.649750,73.637993 466.774353,73.277191 462.754578,74.960114 
	C449.581879,80.474960 436.545502,86.387665 423.805847,92.836990 
	C416.389984,96.591187 409.641266,101.663200 401.988007,106.074570 
	C399.380280,107.049690 396.772583,108.024818 393.847900,108.371193 
	C393.138824,107.985321 392.328461,107.715271 391.735443,107.196693 
	C376.308807,93.706505 358.814209,83.570274 340.017090,75.654121 
	C329.043793,71.032852 317.346405,72.784187 310.307648,80.148048 
	C309.096771,81.702522 307.731384,83.161278 306.699707,84.826729 
	C299.040253,97.191002 291.447052,109.596329 283.216858,122.267128 
	C282.233887,124.209114 281.250916,126.151093 279.951782,128.744186 
M253.464081,604.041443 
	C252.642807,612.872620 251.596817,621.690796 251.083664,630.539795 
	C250.770737,635.936584 253.901657,638.444336 259.070709,638.022949 
	C261.406372,637.832581 263.770660,637.993591 266.121948,637.993774 
	C283.954254,637.994934 301.788849,638.129517 319.615784,637.819763 
	C321.742096,637.782898 325.283783,635.627747 325.638519,633.926697 
	C326.477631,629.902466 325.931915,625.551208 325.649353,621.352112 
	C325.550323,619.880493 324.987335,617.992676 323.945679,617.106995 
	C318.521698,612.495056 312.409210,608.608032 307.420166,603.590088 
	C300.717865,596.848755 294.595551,589.486328 288.652740,582.048218 
	C283.703430,575.853577 279.371887,569.165344 273.870422,561.436584 
	C262.756470,574.119446 256.354095,587.703735 253.464081,604.041443 
z"/>
<path fill="#FFAC00" opacity="1.000000" stroke="none" 
	d="
M113.997383,310.165283 
	C118.709381,309.436920 123.421371,308.708557 128.988464,307.970276 
	C132.619461,307.622864 135.431396,307.465607 138.165451,306.918915 
	C157.775543,302.997650 174.693436,294.542297 186.760498,278.177551 
	C190.653488,283.571564 195.352707,286.627808 201.993149,286.032410 
	C207.413162,285.546417 212.857986,285.054932 218.291550,285.057739 
	C231.957718,285.064880 241.861389,277.877411 249.345306,267.667908 
	C257.544861,256.482117 265.654663,245.378326 276.215820,236.260071 
	C288.878418,225.327423 303.483978,217.818985 319.360596,213.179016 
	C328.756042,210.433212 338.640869,208.655167 348.404449,208.058487 
	C360.038635,207.347488 371.827515,207.809708 383.455994,208.828934 
	C391.531769,209.536758 399.449982,212.042297 407.764343,213.831207 
	C417.382843,222.119934 427.340576,229.693558 435.820099,238.664429 
	C450.289154,253.971909 459.906555,272.404449 464.605835,292.896881 
	C469.845062,315.743866 469.480438,338.781067 462.435944,361.306274 
	C456.607086,379.944366 446.849243,396.324738 433.323120,410.633392 
	C421.060547,423.605347 407.281647,434.237701 391.392426,442.315521 
	C376.508636,449.882263 361.137695,456.056366 344.707947,459.212860 
	C330.227936,461.994781 315.761749,465.250000 301.130951,466.748779 
	C280.758453,468.835693 260.283142,468.316284 239.843979,466.109711 
	C209.339203,462.816467 179.824127,456.321930 152.616013,441.465485 
	C125.992592,426.928284 105.374138,406.728973 93.015884,378.657135 
	C92.673500,377.879425 91.737907,377.362885 91.030869,376.296844 
	C90.932663,363.650757 94.048660,352.012512 98.718285,340.954987 
	C103.167313,330.419800 108.854523,320.407471 113.997383,310.165283 
M246.023010,367.509644 
	C237.979370,360.106628 225.923553,366.354736 223.666718,375.482452 
	C222.019012,382.146515 218.777954,389.548157 213.888428,394.071106 
	C198.010696,408.758423 175.278809,406.460052 162.672256,389.384705 
	C159.323044,384.848267 156.817505,379.297607 149.931259,378.293610 
	C143.462845,377.350525 134.588470,381.651031 133.939072,388.442322 
	C133.022995,398.022522 136.778610,405.716339 142.997894,412.439606 
	C153.339798,423.619629 166.073410,429.804291 181.242203,432.280304 
	C196.599960,434.787201 210.785568,431.594727 223.656555,424.368225 
	C235.612808,417.655273 244.940750,407.476685 249.019150,393.696503 
	C251.632156,384.867584 253.617676,375.962494 246.023010,367.509644 
M338.593781,317.891663 
	C344.195648,309.301056 345.671051,299.734406 343.366852,290.056580 
	C340.327362,277.290253 326.607300,265.411926 310.621216,266.949585 
	C291.617126,268.777557 280.862457,279.398560 280.169800,297.369019 
	C279.588715,312.444611 288.330475,325.159271 304.236481,329.519135 
	C308.341278,330.644287 312.953796,330.671967 317.235291,330.238342 
	C325.779022,329.373169 332.363983,324.544678 338.593781,317.891663 
M380.061615,346.695282 
	C363.251068,347.244019 351.649353,361.863251 353.156708,378.555450 
	C354.839661,397.192413 367.956726,407.755707 384.593628,406.868774 
	C401.248627,405.980865 414.165771,390.830750 412.994141,374.542908 
	C411.821991,358.248016 397.057617,345.369446 380.061615,346.695282 
M172.027084,324.837585 
	C169.121078,330.513672 168.981354,336.256561 172.976913,341.297577 
	C176.916672,346.268280 182.132126,347.361176 188.648193,346.257996 
	C194.348541,345.292938 197.410385,342.052307 198.580261,337.521362 
	C199.766342,332.927612 200.049850,327.688904 196.109055,323.632111 
	C190.276978,317.628479 181.441605,314.761932 172.027084,324.837585 
z"/>
<path fill="#FF1809" opacity="1.000000" stroke="none" 
	d="
M91.078918,376.724548 
	C91.737907,377.362885 92.673500,377.879425 93.015884,378.657135 
	C105.374138,406.728973 125.992592,426.928284 152.616013,441.465485 
	C179.824127,456.321930 209.339203,462.816467 239.843979,466.109711 
	C260.283142,468.316284 280.758453,468.835693 301.130951,466.748779 
	C315.761749,465.250000 330.227936,461.994781 344.707947,459.212860 
	C361.137695,456.056366 376.508636,449.882263 391.392426,442.315521 
	C407.281647,434.237701 421.060547,423.605347 433.323120,410.633392 
	C446.849243,396.324738 456.607086,379.944366 462.435944,361.306274 
	C469.480438,338.781067 469.845062,315.743866 464.605835,292.896881 
	C459.906555,272.404449 450.289154,253.971909 435.820099,238.664429 
	C427.340576,229.693558 417.382843,222.119934 407.591614,213.542175 
	C399.197876,208.418762 391.631317,202.974045 383.341003,199.063660 
	C364.216125,190.042801 343.863434,185.922913 322.679932,186.116272 
	C328.644104,184.753616 334.596008,182.320282 340.575012,182.251770 
	C352.925293,182.110229 365.321808,182.870804 377.636963,183.963104 
	C385.049408,184.620529 392.429443,186.266006 399.664215,188.098480 
	C405.052948,189.463394 410.186066,191.838242 415.430786,193.769379 
	C415.888275,193.937851 416.325836,194.159760 416.778015,194.343597 
	C432.662415,200.800629 445.982941,210.980240 458.854553,222.136444 
	C473.035187,234.427277 483.773315,249.479462 492.251801,265.631042 
	C499.472809,279.387054 504.633392,294.560913 506.010406,310.503937 
	C506.631714,317.697327 508.069916,324.909302 507.820953,332.067078 
	C507.480286,341.861206 506.376495,351.696014 504.717834,361.362000 
	C501.931580,377.599274 496.295319,392.926575 488.025970,407.234161 
	C483.846893,414.464722 480.105957,421.996918 475.363556,428.835663 
	C472.422577,433.076691 467.957794,436.255524 464.208282,439.942993 
	C460.828247,443.267029 457.391937,446.544617 454.208801,450.050079 
	C453.473022,450.860413 453.007172,453.065369 453.534302,453.698486 
	C460.160339,461.656494 466.991669,469.443542 473.655762,477.806458 
	C472.195496,480.004150 471.059906,481.909912 469.472107,483.298584 
	C451.804504,498.750458 431.731140,510.279968 410.071014,519.079712 
	C389.667175,527.369019 368.395966,532.460205 346.529633,534.765259 
	C336.662903,535.805481 326.678619,536.218933 316.756592,536.109070 
	C306.845123,535.999329 296.944855,534.880432 287.039673,534.203979 
	C284.301331,528.970459 281.269989,523.864990 278.910126,518.466125 
	C276.713837,513.441528 275.345215,508.061615 273.398163,502.919220 
	C272.037262,499.324921 269.448547,497.774963 265.331268,497.907990 
	C256.189392,498.203217 247.031403,497.981201 237.880066,498.004639 
	C225.533157,498.036285 213.406540,496.550964 201.473129,493.270813 
	C192.097702,490.693878 182.479736,488.917328 173.248627,485.924347 
	C166.391846,483.701202 160.073853,479.872040 153.354935,477.156403 
	C138.963058,471.339569 127.604927,461.313446 117.190346,450.371582 
	C110.895180,443.757690 104.888756,436.243256 101.079025,428.051483 
	C96.553101,418.319763 90.960403,408.610687 90.890282,397.169373 
	C90.862617,392.656372 89.675301,388.150452 89.379860,383.387085 
	C90.060173,384.095123 90.376648,385.057373 90.446632,385.270172 
	C90.621605,382.905304 90.850266,379.814941 91.078918,376.724548 
z"/>
<path fill="#03B0FF" opacity="1.000000" stroke="none" 
	d="
M539.671326,506.097412 
	C528.994873,499.368134 520.528748,490.190948 512.037415,481.056610 
	C506.861542,475.488831 501.720703,469.881866 496.757568,464.125702 
	C494.272552,461.243561 492.101990,458.065826 490.009583,454.877197 
	C488.280518,452.242249 488.645752,449.931702 490.957092,447.386536 
	C494.041870,443.989716 496.511780,440.029327 499.197052,436.276123 
	C503.191193,430.693481 507.430084,425.257172 511.019409,419.423035 
	C513.789673,414.920258 515.755005,409.917542 518.017700,405.108643 
	C520.035278,400.820557 522.435730,396.638306 523.832092,392.149567 
	C525.936584,385.384613 527.530945,378.437592 528.944214,371.487030 
	C530.648071,363.107300 532.518066,354.693146 533.250366,346.202026 
	C534.089233,336.475006 534.303955,326.616516 533.757812,316.873016 
	C533.343140,309.473663 531.619568,302.092865 529.913025,294.836792 
	C528.331604,288.112671 526.323059,281.445099 523.918884,274.969330 
	C520.804443,266.580383 517.683594,258.102936 513.507446,250.224426 
	C509.272614,242.235107 503.911316,234.816116 498.732178,227.363632 
	C495.384430,222.546478 491.478546,218.117050 487.817780,213.517822 
	C487.509918,213.131012 487.236938,212.616318 486.825378,212.427002 
	C479.218170,208.927444 475.695862,200.928131 469.009277,196.344788 
	C464.654724,193.359909 460.814606,189.624542 456.554993,185.764816 
	C469.293701,177.467377 482.221405,169.630508 495.530579,161.829803 
	C498.433960,161.097992 500.921631,160.175232 503.487732,159.606308 
	C505.965729,159.056915 508.860504,157.944626 510.981079,158.712326 
	C516.076843,160.557114 521.019592,163.036240 525.681396,165.830994 
	C544.667419,177.213013 558.725952,192.731552 566.522644,213.837219 
	C572.435364,229.843216 573.090393,245.643723 567.407166,261.728027 
	C565.854736,266.121399 567.736633,268.732758 571.342651,271.615143 
	C578.645203,277.452301 585.944214,283.560028 592.007996,290.618622 
	C601.101074,301.203461 606.153564,313.915527 607.546387,328.357544 
	C607.895630,332.233673 608.531616,335.734528 608.318848,339.183044 
	C606.697266,365.461212 595.515503,386.474091 573.511841,401.365540 
	C564.316711,407.588501 564.286499,407.543823 570.236206,417.266357 
	C570.477722,421.460052 570.148132,425.440399 571.293091,428.938019 
	C574.753479,439.509033 573.158875,450.145569 570.621887,460.177887 
	C565.882019,478.920898 554.615356,493.903137 539.671326,506.097412 
z"/>
<path fill="#FFAB00" opacity="1.000000" stroke="none" 
	d="
M287.040283,534.555481 
	C296.944855,534.880432 306.845123,535.999329 316.756592,536.109070 
	C326.678619,536.218933 336.662903,535.805481 346.529633,534.765259 
	C368.395966,532.460205 389.667175,527.369019 410.071014,519.079712 
	C431.731140,510.279968 451.804504,498.750458 469.472107,483.298584 
	C471.059906,481.909912 472.195496,480.004150 473.800201,478.119507 
	C483.832001,489.513702 492.940125,501.778442 503.535309,512.585266 
	C518.888000,528.244629 536.381226,541.271973 557.233398,549.092163 
	C582.355042,558.513489 607.348877,559.754822 631.748596,547.016113 
	C647.038879,539.033203 658.278870,526.684265 667.029053,511.955536 
	C668.468994,509.531860 670.177368,507.267670 671.761780,504.929779 
	C672.169983,505.042175 672.578186,505.154541 672.986389,505.266907 
	C672.986389,514.470093 672.986389,523.673340 672.682129,533.584412 
	C669.248108,540.401062 666.992798,547.210571 662.788147,552.458069 
	C656.120789,560.778992 648.489136,568.422607 640.639465,575.675293 
	C632.025330,583.634216 622.273132,590.252991 611.400269,594.820068 
	C602.139343,598.710083 592.824585,602.778870 583.151001,605.301086 
	C571.400085,608.364746 559.323608,610.862915 547.247681,611.802185 
	C535.459717,612.718994 523.414856,612.091736 511.631195,610.794067 
	C500.534210,609.571960 489.499847,607.087769 478.682800,604.231506 
	C469.659729,601.848999 460.991241,598.123596 452.165741,594.992920 
	C450.667816,589.961304 447.611053,586.249390 442.464020,583.538025 
	C440.212433,574.864807 434.324860,569.678345 427.727631,565.539917 
	C416.448730,558.464661 404.091949,555.567322 390.732147,557.978943 
	C375.371155,560.751831 362.503174,567.482788 354.927673,581.691589 
	C351.307983,588.480774 348.830780,595.879150 345.836121,603.001587 
	C342.061523,600.286987 338.115814,597.779053 334.542664,594.821106 
	C320.899658,583.527100 309.158081,570.418518 299.144135,555.864075 
	C294.585785,549.238831 291.043884,541.914307 287.040283,534.555481 
z"/>
<path fill="#BAFF01" opacity="1.000000" stroke="none" 
	d="
M607.440002,327.958069 
	C606.153564,313.915527 601.101074,301.203461 592.007996,290.618622 
	C585.944214,283.560028 578.645203,277.452301 571.342651,271.615143 
	C567.736633,268.732758 565.854736,266.121399 567.407166,261.728027 
	C573.090393,245.643723 572.435364,229.843216 566.522644,213.837219 
	C558.725952,192.731552 544.667419,177.213013 525.681396,165.830994 
	C521.019592,163.036240 516.076843,160.557114 510.981079,158.712326 
	C508.860504,157.944626 505.965729,159.056915 503.487732,159.606308 
	C500.921631,160.175232 498.433960,161.097992 495.459351,161.472931 
	C494.815857,160.283859 494.817780,159.367096 494.405945,158.709427 
	C483.981232,142.063568 470.332245,128.764679 452.790314,119.816833 
	C440.144348,113.366325 426.699615,109.259941 412.577881,107.723190 
	C413.803131,105.962364 414.631226,104.100822 416.061951,103.234093 
	C435.511993,91.451721 454.855164,79.419334 477.049866,73.203529 
	C486.557892,72.915504 492.212524,79.347153 496.840210,85.963829 
	C510.803162,105.928162 518.614990,128.552246 523.339294,151.794083 
	C537.767273,150.850967 551.937378,149.133057 566.089050,149.273956 
	C575.754150,149.370209 585.504883,151.569885 595.013245,153.728180 
	C604.694946,155.925827 612.504883,165.871155 612.153992,176.739288 
	C611.554016,195.322250 605.236877,212.118576 597.691101,228.634323 
	C595.406067,233.635773 592.500244,238.353592 589.686035,243.557709 
	C608.008850,246.752426 625.362610,252.012787 641.120422,261.233154 
	C646.720093,264.509735 651.703918,269.520752 655.666870,274.730469 
	C660.071899,280.521240 659.725098,288.228394 656.618652,294.237366 
	C651.186401,304.745361 644.636353,314.744659 637.828430,324.447540 
	C633.408386,330.747009 627.700134,336.142639 621.984985,341.974335 
	C620.531128,341.034607 619.740662,339.975830 618.777832,339.108307 
	C614.834961,335.555756 613.604553,329.242706 607.440002,327.958069 
z"/>
<path fill="#FF1809" opacity="1.000000" stroke="none" 
	d="
M452.096863,595.423584 
	C460.991241,598.123596 469.659729,601.848999 478.682800,604.231506 
	C489.499847,607.087769 500.534210,609.571960 511.631195,610.794067 
	C523.414856,612.091736 535.459717,612.718994 547.247681,611.802185 
	C559.323608,610.862915 571.400085,608.364746 583.151001,605.301086 
	C592.824585,602.778870 602.139343,598.710083 611.400269,594.820068 
	C622.273132,590.252991 632.025330,583.634216 640.639465,575.675293 
	C648.489136,568.422607 656.120789,560.778992 662.788147,552.458069 
	C666.992798,547.210571 669.248108,540.401062 672.667969,534.039551 
	C672.945740,536.556763 673.412354,539.431274 672.835205,542.078125 
	C670.729431,551.736877 669.166138,561.658630 665.676880,570.826050 
	C662.770142,578.462830 657.750610,585.385071 653.102234,592.240967 
	C649.383850,597.725281 645.331421,603.183167 640.524780,607.690430 
	C628.325684,619.129883 614.074707,626.954407 598.040344,632.324097 
	C583.822937,637.085266 569.402893,637.479736 554.880859,637.880737 
	C544.643738,638.163391 534.375183,637.048950 524.121887,637.072571 
	C511.536530,637.101624 498.953888,637.749023 486.367279,637.971313 
	C477.849335,638.121765 469.326569,638.004517 460.805969,637.997803 
	C457.298859,637.994995 453.719727,638.381531 450.313049,637.788513 
	C448.431488,637.460938 445.451355,635.572510 445.353485,634.215515 
	C444.899750,627.923706 444.855713,621.524841 445.542877,615.260620 
	C445.890533,612.091431 448.327606,609.204163 449.406647,606.048096 
	C450.538269,602.738220 451.175018,599.259277 452.096863,595.423584 
z"/>
<path fill="#FF0069" opacity="1.000000" stroke="none" 
	d="
M345.981262,603.316895 
	C348.830780,595.879150 351.307983,588.480774 354.927673,581.691589 
	C362.503174,567.482788 375.371155,560.751831 390.732147,557.978943 
	C404.091949,555.567322 416.448730,558.464661 427.727631,565.539917 
	C434.324860,569.678345 440.212433,574.864807 442.112427,583.470825 
	C435.468842,584.475525 430.633270,587.398010 426.721313,593.255798 
	C421.896454,600.480530 421.925415,608.157410 421.991180,616.109253 
	C422.035248,621.439331 422.040009,626.770508 421.980133,632.100281 
	C421.937805,635.865967 419.954315,637.967590 416.172394,637.975281 
	C395.350433,638.017395 374.527893,638.077148 353.706665,637.948059 
	C347.509613,637.909668 346.640076,636.220886 346.887329,630.052246 
	C347.090515,624.982971 346.266083,619.879883 346.078308,614.785156 
	C345.941467,611.073120 346.099701,607.350220 345.981262,603.316895 
z"/>
<path fill="#FF0269" opacity="1.000000" stroke="none" 
	d="
M412.460907,108.084984 
	C426.699615,109.259941 440.144348,113.366325 452.790314,119.816833 
	C470.332245,128.764679 483.981232,142.063568 494.405945,158.709427 
	C494.817780,159.367096 494.815857,160.283859 495.077942,161.436768 
	C482.221405,169.630508 469.293701,177.467377 456.249664,185.612823 
	C451.246368,183.516800 446.297180,181.229248 441.490662,178.673340 
	C437.035675,176.304352 432.948578,173.121933 428.318817,171.228424 
	C418.601013,167.253922 408.817169,163.209595 398.712891,160.480804 
	C389.814026,158.077530 380.467133,157.229080 371.271332,156.062714 
	C364.136139,155.157730 356.928864,154.821335 349.380188,153.681671 
	C349.891815,151.610474 350.577789,149.920639 351.699249,148.600861 
	C355.058624,144.647476 358.588257,140.838745 362.384979,136.902832 
	C366.399963,133.372375 369.905884,129.698578 373.803925,126.503090 
	C379.658203,121.703964 385.831482,117.295685 391.758972,112.582687 
	C392.832092,111.729462 393.376404,110.211189 394.164856,108.999939 
	C396.772583,108.024818 399.380280,107.049690 402.518188,106.440277 
	C406.185852,107.232315 409.323395,107.658653 412.460907,108.084984 
M385.332642,120.827286 
	C380.577484,124.930809 375.762604,128.967896 371.092682,133.166214 
	C368.796387,135.230576 368.418823,138.238312 370.567200,140.181732 
	C372.071014,141.542053 374.890259,141.716263 377.156006,141.851974 
	C378.272095,141.918839 379.528107,140.789322 380.613647,140.044937 
	C388.784180,134.442413 396.933533,128.808838 405.077332,123.167480 
	C407.964600,121.167412 409.050995,116.090927 406.661255,113.532143 
	C404.466370,111.182037 401.562164,109.819786 398.256439,112.110176 
	C394.183838,114.931908 390.050964,117.666733 385.332642,120.827286 
z"/>
<path fill="#FFE9BD" opacity="1.000000" stroke="none" 
	d="
M322.315277,186.192993 
	C343.863434,185.922913 364.216125,190.042801 383.341003,199.063660 
	C391.631317,202.974045 399.197876,208.418762 407.265869,213.455612 
	C399.449982,212.042297 391.531769,209.536758 383.455994,208.828934 
	C371.827515,207.809708 360.038635,207.347488 348.404449,208.058487 
	C338.640869,208.655167 328.756042,210.433212 319.360596,213.179016 
	C303.483978,217.818985 288.878418,225.327423 276.215820,236.260071 
	C265.654663,245.378326 257.544861,256.482117 249.345306,267.667908 
	C241.861389,277.877411 231.957718,285.064880 218.291550,285.057739 
	C212.857986,285.054932 207.413162,285.546417 201.993149,286.032410 
	C195.352707,286.627808 190.653488,283.571564 186.858215,277.966949 
	C187.035965,276.991089 187.235962,276.573914 187.435944,276.156738 
	C188.641998,272.665314 189.789703,269.152252 191.073883,265.689789 
	C191.985931,263.230652 193.360046,261.847931 196.513565,261.877502 
	C203.250320,261.940704 210.071152,261.814636 216.693497,260.747742 
	C219.156570,260.350922 221.832382,257.505615 223.262726,255.095337 
	C230.993149,242.068848 240.195801,230.205307 251.473099,220.172882 
	C268.200745,205.291733 287.403046,194.677765 309.188080,189.042053 
	C313.399475,187.952591 317.694305,187.185532 322.315277,186.192993 
z"/>
<path fill="#FF026A" opacity="1.000000" stroke="none" 
	d="
M607.546387,328.357544 
	C613.604553,329.242706 614.834961,335.555756 618.777832,339.108307 
	C619.740662,339.975830 620.531128,341.034607 621.708984,342.185364 
	C625.295044,347.028625 628.644958,351.643585 631.827271,356.371338 
	C634.163940,359.842743 636.500244,363.346161 638.450867,367.039124 
	C642.688477,375.061951 647.099792,383.037842 650.618347,391.379547 
	C652.843445,396.654633 654.497314,402.506439 654.800720,408.185364 
	C655.403870,419.474854 651.592834,424.879272 640.211670,429.879333 
	C626.500000,435.903229 611.859558,437.981506 597.206177,440.012970 
	C595.451233,440.256256 593.713623,440.624481 591.334351,440.706543 
	C586.301575,434.964111 581.995300,429.372131 577.463074,423.969727 
	C575.310669,421.404114 572.727356,419.200104 570.339294,416.832275 
	C564.286499,407.543823 564.316711,407.588501 573.511841,401.365540 
	C595.515503,386.474091 606.697266,365.461212 608.318848,339.183044 
	C608.531616,335.734528 607.895630,332.233673 607.546387,328.357544 
z"/>
<path fill="#BAFF01" opacity="1.000000" stroke="none" 
	d="
M570.236206,417.266357 
	C572.727356,419.200104 575.310669,421.404114 577.463074,423.969727 
	C581.995300,429.372131 586.301575,434.964111 590.917725,440.740662 
	C603.213135,460.099457 612.521729,480.380066 616.722595,502.702576 
	C617.465149,506.648468 617.246826,511.031860 616.384399,514.975342 
	C613.717224,527.172546 603.482178,529.748169 593.328247,528.790710 
	C578.277222,527.371460 564.268921,522.183350 551.267334,514.487854 
	C547.366882,512.179260 543.818604,509.275543 539.890137,506.370941 
	C554.615356,493.903137 565.882019,478.920898 570.621887,460.177887 
	C573.158875,450.145569 574.753479,439.509033 571.293091,428.938019 
	C570.148132,425.440399 570.477722,421.460052 570.236206,417.266357 
z"/>
<path fill="#B9FF02" opacity="1.000000" stroke="none" 
	d="
M394.006378,108.685562 
	C393.376404,110.211189 392.832092,111.729462 391.758972,112.582687 
	C385.831482,117.295685 379.658203,121.703964 373.803925,126.503090 
	C369.905884,129.698578 366.399963,133.372375 362.266022,136.553406 
	C356.058044,133.910278 350.412201,131.217804 344.524017,129.250702 
	C332.766785,125.322899 320.687073,123.302696 308.194366,123.681297 
	C302.466095,123.854897 296.709167,123.082069 290.999847,122.379349 
	C297.355927,109.433350 303.706055,96.860634 309.955444,84.238045 
	C310.595459,82.945335 310.632111,81.353897 310.948730,79.901077 
	C317.346405,72.784187 329.043793,71.032852 340.017090,75.654121 
	C358.814209,83.570274 376.308807,93.706505 391.735443,107.196693 
	C392.328461,107.715271 393.138824,107.985321 394.006378,108.685562 
z"/>
<path fill="#FF1709" opacity="1.000000" stroke="none" 
	d="
M253.684204,603.663696 
	C256.354095,587.703735 262.756470,574.119446 273.870422,561.436584 
	C279.371887,569.165344 283.703430,575.853577 288.652740,582.048218 
	C294.595551,589.486328 300.717865,596.848755 307.420166,603.590088 
	C312.409210,608.608032 318.521698,612.495056 323.945679,617.106995 
	C324.987335,617.992676 325.550323,619.880493 325.649353,621.352112 
	C325.931915,625.551208 326.477631,629.902466 325.638519,633.926697 
	C325.283783,635.627747 321.742096,637.782898 319.615784,637.819763 
	C301.788849,638.129517 283.954254,637.994934 266.121948,637.993774 
	C263.770660,637.993591 261.406372,637.832581 259.070709,638.022949 
	C253.901657,638.444336 250.770737,635.936584 251.083664,630.539795 
	C251.596817,621.690796 252.642807,612.872620 253.684204,603.663696 
z"/>
<path fill="#04B1FF" opacity="1.000000" stroke="none" 
	d="
M290.965240,122.738441 
	C296.709167,123.082069 302.466095,123.854897 308.194366,123.681297 
	C320.687073,123.302696 332.766785,125.322899 344.524017,129.250702 
	C350.412201,131.217804 356.058044,133.910278 361.932465,136.624115 
	C358.588257,140.838745 355.058624,144.647476 351.699249,148.600861 
	C350.577789,149.920639 349.891815,151.610474 348.998688,153.484253 
	C317.300171,155.642334 287.841461,164.805191 258.910583,181.564911 
	C261.603882,173.354919 263.899261,166.357880 266.576660,159.584229 
	C266.961578,160.472092 266.788727,161.198151 266.996460,161.790848 
	C268.203613,165.235229 267.932465,170.638016 272.620819,170.630905 
	C277.139832,170.624069 277.887634,165.676941 279.104309,161.849731 
	C281.287109,154.983429 283.699768,148.176315 286.344513,141.473953 
	C290.424652,131.134140 290.481598,131.046753 280.267944,128.093079 
	C281.250916,126.151093 282.233887,124.209114 283.735107,122.496429 
	C286.490631,122.729965 288.727936,122.734200 290.965240,122.738441 
z"/>
<path fill="#FFAB00" opacity="1.000000" stroke="none" 
	d="
M140.072052,232.925095 
	C147.371353,241.674759 154.638458,250.451645 162.000183,259.148468 
	C163.295502,260.678711 164.986832,261.873718 166.776154,263.804901 
	C167.151047,264.862305 167.496536,265.519165 167.302948,265.788452 
	C158.249908,278.381897 147.373276,288.271820 131.103821,290.238373 
	C129.745804,290.402496 128.489853,291.411133 127.096130,291.634399 
	C126.004486,285.640442 124.093987,280.019379 124.217606,274.443359 
	C124.397545,266.326874 125.126701,257.982178 127.335953,250.222885 
	C129.305130,243.306747 132.567627,236.271744 140.072052,232.925095 
z"/>
<path fill="#FF1809" opacity="1.000000" stroke="none" 
	d="
M127.186485,292.027405 
	C128.489853,291.411133 129.745804,290.402496 131.103821,290.238373 
	C147.373276,288.271820 158.249908,278.381897 167.302948,265.788452 
	C167.496536,265.519165 167.151047,264.862305 166.987534,264.068115 
	C173.551620,267.820740 180.185196,271.891541 187.127380,276.059540 
	C187.235962,276.573914 187.035965,276.991089 186.738251,277.618835 
	C174.693436,294.542297 157.775543,302.997650 138.165451,306.918915 
	C135.431396,307.465607 132.619461,307.622864 129.414093,307.903992 
	C129.231186,306.991608 129.911911,305.958527 129.647781,305.310760 
	C128.609222,302.763733 127.273300,300.337982 126.402328,297.612793 
	C126.892067,297.448486 127.016937,297.576691 127.165634,297.617035 
	C127.292145,297.651367 127.571068,297.576691 127.570244,297.563507 
	C127.455017,295.717346 127.320305,293.872406 127.186485,292.027405 
z"/>
<path fill="#FFE9BD" opacity="1.000000" stroke="none" 
	d="
M127.096130,291.634399 
	C127.320305,293.872406 127.455017,295.717346 127.570244,297.563507 
	C127.571068,297.576691 127.292145,297.651367 127.165634,297.617035 
	C127.016937,297.576691 126.892067,297.448486 126.460312,297.240906 
	C117.814186,280.779755 114.764091,263.311157 116.188721,245.194672 
	C116.638657,239.472977 118.457703,233.472321 121.158615,228.403015 
	C125.431549,220.383179 133.551575,220.948563 137.998016,228.915710 
	C138.622162,230.034058 139.317551,231.112640 140.026001,232.567368 
	C132.567627,236.271744 129.305130,243.306747 127.335953,250.222885 
	C125.126701,257.982178 124.397545,266.326874 124.217606,274.443359 
	C124.093987,280.019379 126.004486,285.640442 127.096130,291.634399 
z"/>
<path fill="#FFE9BD" opacity="1.000000" stroke="none" 
	d="
M91.030869,376.296844 
	C90.850266,379.814941 90.621605,382.905304 90.446632,385.270172 
	C90.376648,385.057373 90.060173,384.095123 89.460022,382.924622 
	C86.706474,362.888245 87.294601,343.267426 93.491829,324.096985 
	C95.257668,318.634521 97.144508,313.155945 99.611893,307.988464 
	C103.348610,300.162567 106.231834,300.137238 111.066071,307.294312 
	C111.704468,308.239471 112.586235,309.020203 113.676331,310.021179 
	C108.854523,320.407471 103.167313,330.419800 98.718285,340.954987 
	C94.048660,352.012512 90.932663,363.650757 91.030869,376.296844 
z"/>
<path fill="#FFFFFF" opacity="1.000000" stroke="none" 
	d="
M280.109863,128.418640 
	C290.481598,131.046753 290.424652,131.134140 286.344513,141.473953 
	C283.699768,148.176315 281.287109,154.983429 279.104309,161.849731 
	C277.887634,165.676941 277.139832,170.624069 272.620819,170.630905 
	C267.932465,170.638016 268.203613,165.235229 266.996460,161.790848 
	C266.788727,161.198151 266.961578,160.472092 266.897339,159.402313 
	C271.207916,148.912720 275.579834,138.828445 280.109863,128.418640 
z"/>
<path fill="#FCFDF8" opacity="1.000000" stroke="none" 
	d="
M412.577881,107.723190 
	C409.323395,107.658653 406.185852,107.232315 402.820374,106.474113 
	C409.641266,101.663200 416.389984,96.591187 423.805847,92.836990 
	C436.545502,86.387665 449.581879,80.474960 462.754578,74.960114 
	C466.774353,73.277191 471.649750,73.637993 476.591583,73.133171 
	C454.855164,79.419334 435.511993,91.451721 416.061951,103.234093 
	C414.631226,104.100822 413.803131,105.962364 412.577881,107.723190 
z"/>
<path fill="#FCFDF8" opacity="1.000000" stroke="none" 
	d="
M290.999847,122.379349 
	C288.727936,122.734200 286.490631,122.729965 284.043213,122.357246 
	C291.447052,109.596329 299.040253,97.191002 306.699707,84.826729 
	C307.731384,83.161278 309.096771,81.702522 310.628174,80.024567 
	C310.632111,81.353897 310.595459,82.945335 309.955444,84.238045 
	C303.706055,96.860634 297.355927,109.433350 290.999847,122.379349 
z"/>
<path fill="#000000" opacity="1.000000" stroke="none" 
	d="
M246.344650,367.727966 
	C253.617676,375.962494 251.632156,384.867584 249.019150,393.696503 
	C244.940750,407.476685 235.612808,417.655273 223.656555,424.368225 
	C210.785568,431.594727 196.599960,434.787201 181.242203,432.280304 
	C166.073410,429.804291 153.339798,423.619629 142.997894,412.439606 
	C136.778610,405.716339 133.022995,398.022522 133.939072,388.442322 
	C134.588470,381.651031 143.462845,377.350525 149.931259,378.293610 
	C156.817505,379.297607 159.323044,384.848267 162.672256,389.384705 
	C175.278809,406.460052 198.010696,408.758423 213.888428,394.071106 
	C218.777954,389.548157 222.019012,382.146515 223.666718,375.482452 
	C225.923553,366.354736 237.979370,360.106628 246.344650,367.727966 
z"/>
<path fill="#FFFFFF" opacity="1.000000" stroke="none" 
	d="
M338.329742,318.148315 
	C332.363983,324.544678 325.779022,329.373169 317.235291,330.238342 
	C312.953796,330.671967 308.341278,330.644287 304.236481,329.519135 
	C288.330475,325.159271 279.588715,312.444611 280.169800,297.369019 
	C280.862457,279.398560 291.617126,268.777557 310.621216,266.949585 
	C326.607300,265.411926 340.327362,277.290253 343.366852,290.056580 
	C345.671051,299.734406 344.195648,309.301056 338.329742,318.148315 
M303.112335,283.010834 
	C298.627563,281.015015 294.593689,281.472992 291.238922,285.282715 
	C288.486206,288.408752 288.124237,291.898193 289.909027,295.614349 
	C291.918671,299.798737 295.539490,302.116516 299.792175,300.773529 
	C302.800995,299.823364 306.285706,297.278534 307.515686,294.531219 
	C309.315765,290.510590 307.426697,286.316467 303.112335,283.010834 
z"/>
<path fill="#FF0069" opacity="1.000000" stroke="none" 
	d="
M380.478790,346.619934 
	C397.057617,345.369446 411.821991,358.248016 412.994141,374.542908 
	C414.165771,390.830750 401.248627,405.980865 384.593628,406.868774 
	C367.956726,407.755707 354.839661,397.192413 353.156708,378.555450 
	C351.649353,361.863251 363.251068,347.244019 380.478790,346.619934 
z"/>
<path fill="#000000" opacity="1.000000" stroke="none" 
	d="
M172.196442,324.488068 
	C181.441605,314.761932 190.276978,317.628479 196.109055,323.632111 
	C200.049850,327.688904 199.766342,332.927612 198.580261,337.521362 
	C197.410385,342.052307 194.348541,345.292938 188.648193,346.257996 
	C182.132126,347.361176 176.916672,346.268280 172.976913,341.297577 
	C168.981354,336.256561 169.121078,330.513672 172.196442,324.488068 
z"/>
<path fill="#FEFAFC" opacity="1.000000" stroke="none" 
	d="
M385.638397,120.633194 
	C390.050964,117.666733 394.183838,114.931908 398.256439,112.110176 
	C401.562164,109.819786 404.466370,111.182037 406.661255,113.532143 
	C409.050995,116.090927 407.964600,121.167412 405.077332,123.167480 
	C396.933533,128.808838 388.784180,134.442413 380.613647,140.044937 
	C379.528107,140.789322 378.272095,141.918839 377.156006,141.851974 
	C374.890259,141.716263 372.071014,141.542053 370.567200,140.181732 
	C368.418823,138.238312 368.796387,135.230576 371.092682,133.166214 
	C375.762604,128.967896 380.577484,124.930809 385.638397,120.633194 
z"/>
<path fill="#000000" opacity="1.000000" stroke="none" 
	d="
M303.484192,283.167969 
	C307.426697,286.316467 309.315765,290.510590 307.515686,294.531219 
	C306.285706,297.278534 302.800995,299.823364 299.792175,300.773529 
	C295.539490,302.116516 291.918671,299.798737 289.909027,295.614349 
	C288.124237,291.898193 288.486206,288.408752 291.238922,285.282715 
	C294.593689,281.472992 298.627563,281.015015 303.484192,283.167969 
z"/>
</svg>